<mxfile host="app.diagrams.net" modified="2024-02-13T07:25:49.607Z" agent="Mozilla/5.0 (Macintosh; Intel Mac OS X 10_15_7) AppleWebKit/537.36 (KHTML, like Gecko) Chrome/120.0.0.0 Safari/537.36" version="23.1.2" etag="5Sms3GolmhEmOwCmHchL" type="github">
  <diagram name="Страница — 1" id="v2GlKDwv88368ZC-Smis">
    <mxGraphModel>
      <root>
        <mxCell id="0" />
        <mxCell id="1" parent="0" />
      </root>
    </mxGraphModel>
  </diagram>
</mxfile>
